<svg width="9" height="14" viewBox="0 0 9 14" fill="none" xmlns="http://www.w3.org/2000/svg">
<path d="M2.24412 11H3.467V6.16546H2.24077L1.0112 7.00304V8.06175L2.22067 7.24427H2.24412V11ZM6.45843 11.1206C7.72151 11.1206 8.50214 10.149 8.50214 8.571C8.50214 6.98294 7.71146 6.04149 6.45843 6.04149C5.20206 6.04149 4.40803 6.98629 4.40803 8.57435C4.40803 10.1557 5.19201 11.1206 6.45843 11.1206ZM6.45843 10.1624C5.97598 10.1624 5.6577 9.61631 5.6577 8.571C5.6577 7.5324 5.97934 6.99969 6.45843 6.99969C6.93753 6.99969 7.25246 7.52905 7.25246 8.57435C7.25246 9.61966 6.93753 10.1624 6.45843 10.1624Z" fill="white"/>
<path d="M1.93387 5.5V3.05814H2.78117V2.42799H0.307386V3.05814H1.15469V5.5H1.93387ZM4.36159 2.37477C3.43126 2.37477 2.84368 2.98576 2.84368 3.96506C2.84368 4.94435 3.42913 5.55322 4.36159 5.55322C5.29192 5.55322 5.87737 4.94435 5.87737 3.96506C5.87737 2.98576 5.29192 2.37477 4.36159 2.37477ZM4.36159 3.00918C4.79802 3.00918 5.08329 3.37961 5.08329 3.96506C5.08329 4.54838 4.79802 4.91881 4.36159 4.91881C3.92304 4.91881 3.63989 4.54838 3.63989 3.96506C3.63989 3.37961 3.92516 3.00918 4.36159 3.00918ZM6.23792 2.42799V5.5H7.01923V4.59947H7.52165C8.20503 4.59947 8.67552 4.17156 8.67552 3.51586C8.67552 2.8559 8.22845 2.42799 7.56849 2.42799H6.23792ZM7.01923 3.02621H7.36199C7.68984 3.02621 7.8857 3.19865 7.8857 3.51799C7.8857 3.83945 7.68984 4.01189 7.35773 4.01189H7.01923V3.02621Z" fill="white"/>
</svg>
